<?xml version="1.0" encoding="iso-8859-1"?>
<!-- Generator: Adobe Illustrator 19.0.0, SVG Export Plug-In . SVG Version: 6.00 Build 0)  -->
<svg version="1.1" id="Capa_1" xmlns="http://www.w3.org/2000/svg" xmlns:xlink="http://www.w3.org/1999/xlink" x="0px" y="0px"
	 viewBox="0 0 512 512" style="enable-background:new 0 0 512 512;" xml:space="preserve">
<path style="fill:#3D9AE2;" d="M504.407,256c0,128.651-97.797,234.463-223.109,247.133c-8.318,0.84-16.758,1.275-25.299,1.275
	C118.807,504.407,7.591,393.192,7.591,256S118.807,7.592,255.999,7.592c8.541,0,16.981,0.435,25.299,1.275
	C406.61,21.537,504.407,127.349,504.407,256z"/>
<path style="fill:#5AAAE7;" d="M504.407,256c0,128.651-97.797,234.463-223.109,247.133C155.986,490.462,58.19,384.651,58.19,256
	S155.986,21.537,281.298,8.867C406.61,21.537,504.407,127.349,504.407,256z"/>
<circle style="fill:#D1E7F8;" cx="255.997" cy="255.997" r="172.692"/>
<path style="fill:#2488FF;" d="M385.713,256c0,62.985-44.891,115.476-104.415,127.245c-8.177,1.619-16.637,2.469-25.299,2.469
	c-71.637,0-129.714-58.077-129.714-129.714s58.077-129.714,129.714-129.714c8.662,0,17.123,0.85,25.299,2.469
	C340.822,140.525,385.713,193.015,385.713,256z"/>
<path style="fill:#57A4FF;" d="M385.713,256c0,62.985-44.891,115.476-104.415,127.245C221.774,371.475,176.883,318.984,176.883,256
	s44.891-115.476,104.415-127.245C340.822,140.525,385.713,193.015,385.713,256z"/>
<path style="fill:#FFDA44;" d="M320.512,256.455l-13.368,13.034c-4.048,3.937-5.89,9.614-4.928,15.169l3.157,18.408
	c2.398,13.995-12.295,24.672-24.864,18.064l-16.536-8.693c-2.5-1.316-5.252-1.973-8.005-1.963c-2.732,0-5.465,0.658-7.944,1.963
	l-16.536,8.693c-12.569,6.608-27.262-4.068-24.864-18.064l3.157-18.408c0.961-5.556-0.88-11.233-4.928-15.169l-13.368-13.034
	c-10.17-9.917-4.564-27.192,9.492-29.226l18.489-2.692c5.576-0.81,10.403-4.311,12.903-9.371l8.268-16.758
	c6.284-12.731,24.439-12.731,30.723,0l1.407,2.854l6.861,13.904c2.5,5.06,7.327,8.561,12.903,9.371l18.489,2.692
	C325.076,229.263,330.682,246.538,320.512,256.455z"/>
<path style="fill:#FFEB99;" d="M320.512,256.455l-13.368,13.034c-4.048,3.937-5.89,9.614-4.928,15.169l3.157,18.408
	c2.398,13.995-12.295,24.672-24.864,18.064l-16.536-8.693c-2.5-1.316-5.252-1.973-8.005-1.963
	c-5.829-12.741-9.077-26.898-9.077-41.825c0-25.916,9.796-49.536,25.876-67.387l6.861,13.904c2.5,5.06,7.327,8.561,12.903,9.371
	l18.489,2.692C325.076,229.263,330.682,246.538,320.512,256.455z"/>
<path d="M437.018,74.982C330.868-31.168,158.388-22.924,61.97,88.995c-2.735,3.177-2.379,7.968,0.796,10.705
	c3.177,2.734,7.968,2.381,10.705-0.796c45.836-53.207,112.365-83.722,182.528-83.722c132.788,0,240.82,108.032,240.82,240.82
	S388.787,496.82,255.999,496.82S15.18,388.789,15.18,256.001c0-47.851,13.999-94.079,40.483-133.685
	c2.331-3.484,1.394-8.199-2.09-10.528c-3.482-2.33-8.197-1.393-10.528,2.09C14.885,155.991,0.001,205.135,0.001,256.001
	C0.001,397.484,114.498,512,256,512c141.483,0,255.999-114.497,255.999-255.999C511.998,187.621,485.371,123.334,437.018,74.982z"/>
<path d="M312.114,219.715l-18.49-2.687c-3.109-0.451-5.796-2.403-7.186-5.221l-8.268-16.753c-9.067-18.37-35.277-18.365-44.342,0
	l-8.268,16.754c-1.39,2.816-4.076,4.768-7.187,5.22l-18.488,2.687c-20.274,2.945-28.366,27.876-13.703,42.172l13.378,13.039
	c2.251,2.194,3.276,5.352,2.744,8.45l-3.156,18.412c-2.662,15.518,9.494,28.933,24.345,28.93c9.486,0,14.004-4.826,28.063-11.56
	c2.783-1.462,6.102-1.462,8.883,0l16.537,8.694c18.132,9.532,39.334-5.878,35.873-26.063l-3.158-18.414
	c-0.53-3.097,0.495-6.255,2.745-8.448l13.378-13.041c6.788-6.617,9.186-16.329,6.256-25.345
	C329.141,227.526,321.494,221.078,312.114,219.715z M315.219,251.016l-13.378,13.041c-5.828,5.681-8.486,13.862-7.11,21.884
	l3.158,18.414c1.339,7.807-6.826,13.75-13.849,10.06l-16.538-8.694c-7.202-3.787-15.805-3.787-23.009,0l-16.537,8.694
	c-6.991,3.677-15.193-2.226-13.848-10.061l3.156-18.412c1.376-8.023-1.282-16.204-7.109-21.886l-13.378-13.039
	c-5.655-5.514-2.579-15.136,5.291-16.281l18.488-2.687c8.054-1.169,15.014-6.225,18.616-13.524l8.268-16.753
	c3.486-7.066,13.594-7.142,17.118,0l8.268,16.752c3.603,7.3,10.562,12.356,18.615,13.525l18.49,2.687
	c3.676,0.534,6.557,2.963,7.704,6.496S317.88,248.423,315.219,251.016z"/>
<path d="M391.695,161.9c2.393,3.442,7.122,4.294,10.564,1.901c3.442-2.392,4.293-7.122,1.901-10.564
	c-35.78-51.484-96.043-81.235-159.664-77.153c-98.588,6.304-174.812,91.68-168.415,191.42c3.6,56.293,32.541,106.654,79.404,138.172
	c1.299,0.873,2.772,1.292,4.229,1.292c7.432,0,10.473-9.7,4.242-13.889c-6.863-4.617-13.302-9.677-19.298-15.128l19.752-19.753
	c22.555,20.234,51.817,33.13,83.999,34.892v27.846c-20.458-0.905-40.299-5.546-59.077-13.851c-3.832-1.693-8.315,0.037-10.011,3.872
	c-1.695,3.833,0.037,8.315,3.872,10.011c26.668,11.796,55.3,16.809,84.309,14.948c125.592-8.031,205.217-140.235,152.359-255.208
	c-1.75-3.808-6.256-5.478-10.066-3.726c-3.809,1.751-5.477,6.258-3.726,10.066c8.73,18.989,13.815,39.486,14.835,61.237h-27.822
	c-1.788-32.133-14.676-61.35-34.884-83.875l19.728-19.728C382.854,150.077,387.466,155.814,391.695,161.9z M248.409,91.09v27.82
	c-32.12,1.759-61.33,14.609-83.868,34.775l-19.665-19.665C172.491,108.84,208.518,92.936,248.409,91.09z M134.137,144.749
	l19.664,19.664c-20.208,22.525-33.095,51.742-34.884,83.875H91.065C92.873,208.655,108.841,172.431,134.137,144.749z
	 M133.91,367.233c-25.843-28.229-41.042-64.532-42.827-103.766h27.818c1.732,32.168,14.591,61.425,34.783,83.991L133.91,367.233z
	 M263.589,420.912v-27.82c32.183-1.762,61.445-14.658,83.999-34.892l19.664,19.665C339.622,403.109,303.543,419.062,263.589,420.912
	z M393.097,263.467h27.845c-1.75,39.667-17.683,75.934-42.963,103.657l-19.666-19.666
	C378.507,324.892,391.366,295.635,393.097,263.467z M378,255.877c0,68.092-54.831,121.585-120.785,122.233
	c-0.397-0.064-0.8-0.106-1.215-0.106s-0.819,0.043-1.215,0.106c-66.854-0.657-120.909-55.268-120.909-122.109
	c0-67.339,54.785-122.124,122.124-122.124C322.512,133.876,378,187.707,378,255.877z M347.457,153.686
	c-22.538-20.166-51.748-33.016-83.868-34.775V91.076c38.712,1.75,75.303,17.124,103.593,42.884L347.457,153.686z"/>
<g>
</g>
<g>
</g>
<g>
</g>
<g>
</g>
<g>
</g>
<g>
</g>
<g>
</g>
<g>
</g>
<g>
</g>
<g>
</g>
<g>
</g>
<g>
</g>
<g>
</g>
<g>
</g>
<g>
</g>
</svg>
