<?xml version="1.0" encoding="iso-8859-1"?>
<!-- Generator: Adobe Illustrator 19.0.0, SVG Export Plug-In . SVG Version: 6.00 Build 0)  -->
<svg version="1.1" id="Capa_1" xmlns="http://www.w3.org/2000/svg" xmlns:xlink="http://www.w3.org/1999/xlink" x="0px" y="0px"
	 viewBox="0 0 512 512" style="enable-background:new 0 0 512 512;" xml:space="preserve">
<circle style="fill:#00EFD1;" cx="256" cy="256" r="256"/>
<path style="fill:#00AD95;" d="M512,256c0,141.38-114.62,256-256,256c-15.12,0-29.93-1.31-44.32-3.83L107.69,404.22
	c-36.83-36.83-39.07-68.49-34.48-88.57c6.96-30.35,32.61-50.17,52.46-57.92c13.54-5.29,24.63-6.97,33.53-8.32
	c14.29-2.17,16.86-2.56,21.24-12.39c9.64-21.64,18.74-42.07,48.19-44.66c17.1-1.5,32.29,4.4,46.73,15.2l63.67-63.67l3.12-25.87
	l6.17-6.18l-11.42-11.42l9.42-9.43l11.43,11.43l10.06-10.07l-11.42-11.42l9.42-9.43l11.43,11.43l9.2-9.2l117.22,117.23
	C509.1,211.73,512,233.53,512,256z"/>
<g>
	
		<rect x="358.254" y="76.414" transform="matrix(-0.7071 -0.7071 0.7071 -0.7071 569.4202 402.0179)" style="fill:#9A4C00;" width="19.434" height="13.328"/>
	
		<rect x="338.768" y="95.911" transform="matrix(-0.7071 -0.7071 0.7071 -0.7071 522.3696 421.523)" style="fill:#9A4C00;" width="19.434" height="13.328"/>
</g>
<g>
	
		<rect x="419.241" y="137.399" transform="matrix(-0.7071 -0.7071 0.7071 -0.7071 630.4088 549.2501)" style="fill:#703700;" width="19.434" height="13.328"/>
	
		<rect x="399.748" y="156.889" transform="matrix(-0.7071 -0.7071 0.7071 -0.7071 583.3511 568.7382)" style="fill:#703700;" width="19.434" height="13.328"/>
</g>
<path style="fill:#FFAA20;" d="M254.333,386.39c5.286-13.537,6.968-24.624,8.319-33.533c2.166-14.28,2.557-16.854,12.393-21.237
	c21.634-9.639,42.068-18.743,44.653-48.189c2.046-23.313-9.671-43.101-28.839-62.268c-19.143-19.144-38.915-30.855-62.229-28.799
	c-29.445,2.585-38.55,23.019-48.189,44.652c-4.383,9.837-6.956,10.227-21.237,12.393c-8.907,1.351-19.993,3.032-33.533,8.319
	c-19.854,7.753-45.504,27.575-52.456,57.921c-4.6,20.078-2.353,51.743,34.477,88.572c29.336,29.337,55.412,36.761,74.983,36.252
	c5.036-0.131,9.643-0.787,13.762-1.732C226.796,431.786,246.599,406.193,254.333,386.39z"/>
<path style="fill:#E67500;" d="M196.437,438.744c-4.116,0.941-8.726,1.594-13.763,1.725c-19.555,0.508-45.617-6.906-74.922-36.183
	L290.867,221.17c5.105,5.105,9.681,10.259,13.605,15.515c10.829,14.443,16.731,29.649,15.226,46.751
	c-2.59,29.443-23.018,38.547-44.655,48.187c-9.832,4.377-10.224,6.954-12.395,21.232c-1.347,8.905-3.03,20.002-8.314,33.531
	C246.603,406.195,226.794,431.79,196.437,438.744z"/>
<rect x="265.19" y="125.916" transform="matrix(-0.7071 -0.7071 0.7071 -0.7071 327.8743 588.3099)" style="fill:#9A4C00;" width="41.18" height="200.668"/>
<rect x="192.718" y="223.248" transform="matrix(-0.7071 0.7071 -0.7071 -0.7071 665.4117 191.465)" style="fill:#703700;" width="200.668" height="20.591"/>
<circle style="fill:#FFFFFF;" cx="200.64" cy="311.39" r="45.823"/>
<path style="fill:#FFEC97;" d="M233.046,343.799c-17.892,17.892-46.909,17.885-64.801-0.007l64.801-64.801
	c5.236,5.236,8.939,11.427,11.111,18.009C249.406,312.913,245.71,331.135,233.046,343.799z"/>
<circle style="fill:#E67500;" cx="200.64" cy="311.39" r="31.503"/>
<path style="fill:#9A4C00;" d="M222.918,333.671c-12.299,12.299-32.246,12.306-44.552,0l44.552-44.552
	c5.572,5.572,8.616,12.698,9.152,19.967C232.71,317.902,229.659,326.93,222.918,333.671z"/>
<rect x="104.691" y="354.427" transform="matrix(-0.7071 -0.7071 0.7071 -0.7071 -4.1772 725.8543)" style="fill:#E67500;" width="87.099" height="18.731"/>
<rect x="154.279" y="357.412" transform="matrix(-0.7071 0.7071 -0.7071 -0.7071 547.4792 531.6025)" style="fill:#9A4C00;" width="18.725" height="43.552"/>
<polygon style="fill:#E67500;" points="386.436,73.727 342.148,118.015 339.032,143.886 368.151,173.005 394.022,169.889 
	438.31,125.601 "/>
<polygon style="fill:#9A4C00;" points="438.314,125.6 394.022,169.891 368.153,173.004 353.591,158.446 412.373,99.664 "/>
<g>
</g>
<g>
</g>
<g>
</g>
<g>
</g>
<g>
</g>
<g>
</g>
<g>
</g>
<g>
</g>
<g>
</g>
<g>
</g>
<g>
</g>
<g>
</g>
<g>
</g>
<g>
</g>
<g>
</g>
</svg>
